Coordinates
version=1
nRows=19
nColumns=63
inDegrees=yes

Units are S.I. units (second, meters, Newtons, ...)
If the header above contains a line with 'inDegrees', this indicates whether rotational values are in degrees (yes) or radians (no).

endheader
time	pelvis_tilt	pelvis_list	pelvis_rotation	pelvis_tx	pelvis_ty	pelvis_tz	hip_flexion_r	hip_adduction_r	hip_rotation_r	knee_angle_r	knee_angle_r_beta	ankle_angle_r	subtalar_angle_r	mtp_angle_r	hip_flexion_l	hip_adduction_l	hip_rotation_l	knee_angle_l	knee_angle_l_beta	ankle_angle_l	subtalar_angle_l	mtp_angle_l	L5_S1_Flex_Ext	L5_S1_Lat_Bending	L5_S1_axial_rotation	L4_L5_Flex_Ext	L4_L5_Lat_Bending	L4_L5_axial_rotation	L3_L4_Flex_Ext	L3_L4_Lat_Bending	L3_L4_axial_rotation	L2_L3_Flex_Ext	L2_L3_Lat_Bending	L2_L3_axial_rotation	L1_L2_Flex_Ext	L1_L2_Lat_Bending	L1_L2_axial_rotation	L1_T12_Flex_Ext	L1_T12_Lat_Bending	L1_T12_axial_rotation	Abs_r3	Abs_r2	Abs_r1	Abs_t1	Abs_t2	neck_flexion	neck_bending	neck_rotation	arm_flex_r	arm_add_r	arm_rot_r	elbow_flex_r	pro_sup_r	wrist_flex_r	wrist_dev_r	arm_flex_l	arm_add_l	arm_rot_l	elbow_flex_l	pro_sup_l	wrist_flex_l	wrist_dev_l
1.627119	-2.010314	-12.025785	95.529261	0.170409	0.942863	0.548181	16.203661	-1.300194	-5.322281	24.513062	0.427834	30.156507	-10.384571	0.000000	12.739796	-0.417907	1.551254	11.434726	0.199574	30.847033	14.333061	0.000000	0.001567	-0.300172	2.338806	0.002911	-0.399229	2.484981	0.002575	-0.729838	2.484981	0.001791	-0.729838	2.046455	0.001455	-0.612111	1.900279	0.000896	-0.464967	1.754104	0.011195	-3.395607	13.007735	0.000000	0.000000	10.992712	-4.929221	-14.533112	-11.562689	-16.715672	-8.084521	102.774463	81.037861	-7.497231	4.320811	7.238677	-9.557523	11.709771	128.750335	85.823342	-11.159716	-13.173522
1.644068	-2.425423	-12.165826	95.141032	0.170636	0.941559	0.548961	16.643530	-1.604472	-4.741852	24.905455	0.434682	30.465088	-10.589173	0.000000	12.779879	-0.054684	0.784536	11.255966	0.196454	30.823053	14.807147	0.000000	0.017757	-0.366149	2.416927	0.032976	-0.486978	2.567984	0.029173	-0.890255	2.567984	0.020294	-0.890255	2.114811	0.016489	-0.746651	1.963753	0.010146	-0.567165	1.812695	0.126835	-4.141952	13.442220	0.000000	0.000000	11.402038	-5.224067	-14.027769	-8.072573	-16.833824	-7.536373	102.091692	81.718902	-7.708434	4.189684	5.589540	-10.506674	10.544468	128.654361	85.627369	-10.302286	-12.785933
1.661017	-2.940043	-12.270321	94.376502	0.171450	0.940457	0.549448	17.061028	-1.926501	-3.910116	25.288215	0.441363	30.773943	-10.642316	0.000000	12.702043	0.344866	-0.220541	11.019940	0.192334	30.725173	15.139639	0.000000	0.031725	-0.439579	2.525520	0.058916	-0.584640	2.683365	0.052120	-1.068793	2.683365	0.036258	-1.068793	2.209830	0.029459	-0.896390	2.051985	0.018127	-0.680908	1.894140	0.226606	-4.972607	14.046183	0.000000	0.000000	11.729544	-5.488068	-13.391315	-3.844527	-16.986065	-6.912302	102.600225	82.235472	-8.111094	4.035576	3.675495	-11.708297	9.394362	127.484611	85.550793	-9.736274	-11.591340
1.677966	-3.548250	-12.345099	93.241243	0.172844	0.939566	0.549612	17.471097	-2.262228	-2.819163	25.679046	0.448184	31.102784	-10.515826	0.000000	12.498488	0.779908	-1.415440	10.694650	0.186657	30.562601	15.296953	0.000000	0.043077	-0.520593	2.672294	0.079999	-0.692389	2.839313	0.070772	-1.265770	2.839313	0.049233	-1.265770	2.338257	0.040002	-1.061593	2.171239	0.024614	-0.806399	2.004221	0.307697	-5.889052	14.862499	0.000000	0.000000	12.028352	-5.683811	-12.657065	0.674212	-17.119374	-6.292407	104.356694	82.541425	-8.660746	3.911509	1.508514	-13.056226	8.196182	125.467658	85.576692	-9.365362	-9.819488
1.694915	-4.161954	-12.391494	92.008313	0.174496	0.938927	0.549412	17.817070	-2.577656	-1.710368	26.029704	0.454304	31.413232	-10.300698	0.000000	12.225609	1.191765	-2.610119	10.347959	0.180606	30.391872	15.366170	0.000000	0.051568	-0.601290	2.839601	0.095766	-0.799716	3.017076	0.084720	-1.461976	3.017076	0.058937	-1.461976	2.484651	0.047886	-1.226150	2.307176	0.029466	-0.931398	2.129701	0.368342	-6.801912	15.793009	0.000000	0.000000	12.261267	-5.860611	-12.136612	4.876431	-17.183278	-5.941980	107.313717	82.421630	-9.105142	3.945891	-0.760111	-14.484840	7.105314	122.785270	85.669903	-9.082340	-7.917794
1.711864	-4.764447	-12.409490	90.737325	0.176311	0.938526	0.548898	18.102741	-2.876243	-0.637338	26.351532	0.459921	31.724854	-9.989243	0.000000	11.898378	1.576459	-3.743269	9.984676	0.174265	30.227689	15.351147	0.000000	0.057584	-0.680195	3.019953	0.106940	-0.904659	3.208700	0.094605	-1.653826	3.208700	0.065813	-1.653826	2.642458	0.053473	-1.387053	2.453711	0.032904	-1.053622	2.264964	0.411320	-7.694501	16.796070	0.000000	0.000000	12.461028	-5.941355	-11.782120	8.346642	-17.103287	-5.882264	111.135838	81.942690	-9.367747	4.054710	-3.067271	-15.901393	6.111563	119.744897	85.816147	-8.804258	-6.167282
1.728814	-5.308090	-12.398220	89.495304	0.178150	0.938360	0.548136	18.319342	-3.127904	0.350247	26.637173	0.464906	32.012569	-9.617580	0.000000	11.538760	1.895994	-4.784137	9.628997	0.168058	30.093839	15.279210	0.000000	0.062060	-0.751939	3.204629	0.115252	-1.000078	3.404919	0.101959	-1.828264	3.404919	0.070928	-1.828264	2.804051	0.057629	-1.533353	2.603761	0.035461	-1.164753	2.403472	0.443289	-8.506081	17.823186	0.000000	0.000000	12.634066	-5.933297	-11.609517	10.812895	-16.878484	-6.116730	115.329378	81.203719	-9.381514	4.178263	-5.264379	-17.183441	5.260207	116.610745	85.986681	-8.531164	-4.779642
1.745763	-5.743328	-12.354343	88.408176	0.179827	0.938427	0.547206	18.442971	-3.313586	1.150559	26.864788	0.468879	32.255361	-9.222945	0.000000	11.191205	2.119897	-5.669816	9.339375	0.163003	30.007106	15.203861	0.000000	0.065399	-0.810996	3.364635	0.121452	-1.078624	3.574925	0.107444	-1.971855	3.574925	0.074744	-1.971855	2.944056	0.060729	-1.653782	2.733766	0.037369	-1.256232	2.523476	0.467138	-9.174146	18.713091	0.000000	0.000000	12.784041	-5.813235	-11.513877	12.222117	-16.561106	-6.528912	119.287872	80.499193	-9.248709	4.256364	-7.157499	-18.203178	4.545631	113.631601	86.165770	-8.274333	-3.816126
1.762712	-6.025241	-12.278784	87.530891	0.181216	0.938704	0.546195	18.472489	-3.403207	1.720320	27.029699	0.471757	32.427945	-8.831093	0.000000	10.883324	2.223657	-6.289761	9.145047	0.159611	29.956339	15.037021	0.000000	0.068692	-0.851995	3.478342	0.127568	-1.133154	3.695739	0.112854	-2.071541	3.695739	0.078508	-2.071541	3.043550	0.063788	-1.737388	2.826153	0.039251	-1.319740	2.608757	0.490662	-9.637939	19.345497	0.000000	0.000000	12.910745	-5.621306	-11.397904	12.681116	-16.286337	-6.862527	122.414113	79.826551	-9.134805	4.346601	-8.545095	-18.839417	3.945067	111.038222	86.342792	-8.123111	-3.223939
1.779661	-6.155323	-12.154271	86.881697	0.182261	0.939165	0.545234	18.397621	-3.404010	2.066726	27.140529	0.473692	32.529031	-8.463154	0.000000	10.635492	2.205398	-6.694711	9.111584	0.159027	29.977189	14.848204	0.000000	0.069102	-0.875062	3.543208	0.128330	-1.163832	3.764658	0.113528	-2.127625	3.764658	0.078977	-2.127625	3.100307	0.064168	-1.784426	2.878856	0.039485	-1.355470	2.657406	0.493590	-9.898871	19.706258	0.000000	0.000000	12.957162	-5.416088	-11.295724	12.290450	-16.126103	-6.996203	124.222988	79.323603	-9.010602	4.522042	-9.146815	-19.030118	3.498902	108.914567	86.519556	-8.045604	-3.096878
1.796610	-6.097103	-11.988450	86.561498	0.182859	0.939746	0.544422	18.219244	-3.286481	2.152511	27.180765	0.474394	32.517211	-8.236115	0.000000	10.499598	2.041190	-6.855914	9.287251	0.162093	30.079286	14.725894	0.000000	0.067867	-0.875671	3.526346	0.126036	-1.164642	3.746743	0.111499	-2.129106	3.746743	0.077565	-2.129106	3.085553	0.063021	-1.785668	2.865156	0.038779	-1.356414	2.644760	0.484768	-9.905765	19.612481	0.000000	0.000000	12.950184	-5.224358	-11.032755	11.237448	-16.149391	-6.647820	124.366489	79.108174	-9.053445	4.646987	-8.855524	-18.791642	3.148173	107.468754	86.683364	-8.078113	-3.240939
1.813559	-5.843131	-11.776334	86.551893	0.183010	0.940368	0.543849	17.949222	-3.041301	1.990155	27.169504	0.474197	32.405541	-8.131104	0.000000	10.494653	1.724688	-6.762564	9.715366	0.169565	30.284804	14.627864	0.000000	0.062676	-0.852074	3.433926	0.116395	-1.133258	3.648546	0.102970	-2.071732	3.648546	0.071632	-2.071732	3.004685	0.058201	-1.737549	2.790065	0.035813	-1.319862	2.575444	0.447686	-9.638829	19.098464	0.000000	0.000000	12.896852	-5.121244	-10.635639	9.590335	-16.351044	-5.835896	122.849763	79.052639	-9.194839	4.789337	-7.581104	-18.176589	2.927072	106.800174	86.841094	-8.181979	-3.514092
1.830508	-5.409937	-11.528589	86.827905	0.182746	0.940963	0.543515	17.604183	-2.682733	1.595616	27.115675	0.473258	32.213420	-8.119769	0.000000	10.630174	1.285744	-6.353683	10.405460	0.181610	30.579485	14.427163	0.000000	0.053857	-0.805868	3.272976	0.100017	-1.071804	3.477537	0.088481	-1.959386	3.477537	0.061553	-1.959386	2.863854	0.050011	-1.643325	2.659293	0.030774	-1.248289	2.454732	0.384693	-9.116135	18.203309	0.000000	0.000000	12.794556	-5.155987	-10.148464	7.408716	-16.691533	-4.668663	119.901327	79.130806	-9.415469	4.936530	-5.381040	-17.282401	2.868867	106.970847	86.966710	-8.319890	-3.847523
1.847458	-4.822625	-11.258250	87.352229	0.182162	0.941486	0.543421	17.204164	-2.224222	1.004141	27.028977	0.471745	31.956387	-8.198201	0.000000	10.916334	0.739300	-5.663796	11.368676	0.198421	30.959093	14.121989	0.000000	0.040508	-0.740949	3.050358	0.075227	-0.985462	3.241006	0.066550	-1.801542	3.241006	0.046296	-1.801542	2.669064	0.037615	-1.510942	2.478416	0.023146	-1.147729	2.287769	0.289342	-8.381759	16.965178	0.000000	0.000000	12.662434	-5.315231	-9.628831	4.823906	-17.114256	-3.280834	115.866943	79.290690	-9.647618	5.048479	-2.436407	-16.227435	2.972912	107.983755	87.055920	-8.419893	-4.282350
1.864407	-4.129162	-10.970588	88.009219	0.181460	0.941922	0.543502	16.764027	-1.685267	0.314963	26.922442	0.469885	31.663425	-8.328869	0.000000	11.315384	0.112997	-4.780379	12.561774	0.219244	31.417600	13.682324	0.000000	0.022291	-0.664185	2.782034	0.041397	-0.883365	2.955911	0.036622	-1.614898	2.955911	0.025477	-1.614898	2.434280	0.020700	-1.354405	2.260402	0.012737	-1.028822	2.086525	0.159224	-7.513389	15.472837	0.000000	0.000000	12.495735	-5.522626	-9.099431	2.054642	-17.561070	-1.761130	111.126762	79.507098	-9.868811	5.209521	0.969880	-15.124051	3.193572	109.769870	87.160101	-8.397546	-4.908593
1.881356	-3.383186	-10.689042	88.700020	0.180841	0.942266	0.543705	16.312529	-1.087517	-0.379509	26.795619	0.467672	31.339612	-8.509821	0.000000	11.811503	-0.565996	-3.807257	13.935657	0.243223	31.933975	13.124569	0.000000	0.002752	-0.583560	2.480016	0.005111	-0.776135	2.635017	0.004521	-1.418868	2.635017	0.003145	-1.418868	2.170014	0.002555	-1.189996	2.015013	0.001572	-0.903935	1.860012	0.019657	-6.601350	13.793103	0.000000	0.000000	12.268859	-5.709294	-8.660766	-0.646108	-17.993165	-0.151888	106.039356	79.697104	-10.083071	5.467965	4.558077	-14.070995	3.511005	112.165693	87.381313	-8.256712	-5.834798
1.898305	-2.641381	-10.400844	89.308052	0.180478	0.942540	0.543991	15.855319	-0.472312	-1.020951	26.672087	0.465516	31.021838	-8.646747	0.000000	12.340017	-1.254159	-2.804063	15.417136	0.269080	32.480633	12.385127	0.000000	-0.019421	-0.505573	2.151787	-0.036067	-0.672413	2.286273	-0.031907	-1.229251	2.286273	-0.022197	-1.229251	1.882813	-0.018035	-1.030965	1.748327	-0.011097	-0.783133	1.613840	-0.138725	-5.719148	11.967591	0.000000	0.000000	11.974692	-5.816741	-8.255289	-2.971384	-18.396481	1.585322	100.946157	79.911834	-10.322696	5.891472	8.072231	-13.155227	3.888194	114.964146	87.772706	-8.064650	-7.057874
1.915254	-1.933624	-10.095061	89.719899	0.180518	0.942759	0.544347	15.399629	0.151154	-1.540151	26.560998	0.463577	30.725241	-8.688411	0.000000	12.846767	-1.936337	-1.855110	16.938614	0.295635	33.032111	11.445420	0.000000	-0.044279	-0.432813	1.805312	-0.082231	-0.575641	1.918144	-0.072746	-1.052341	1.918144	-0.050607	-1.052341	1.579648	-0.041118	-0.882592	1.466816	-0.025301	-0.670427	1.353984	-0.316281	-4.896065	10.040606	0.000000	0.000000	11.626146	-5.800628	-7.778123	-4.635634	-18.795298	3.526225	96.172154	80.198788	-10.661579	6.411044	11.277318	-12.426756	4.270713	117.949385	88.170343	-7.848683	-8.358012
1.932203	-1.306558	-9.760532	89.820782	0.181093	0.942928	0.544783	14.967033	0.745799	-1.878994	26.492828	0.462387	30.475183	-8.549100	0.000000	13.278822	-2.573676	-1.044198	18.432356	0.321705	33.544219	10.286188	0.000000	-0.071875	-0.370185	1.453904	-0.133479	-0.492346	1.544773	-0.118083	-0.900067	1.544773	-0.082146	-0.900067	1.272166	-0.066743	-0.754881	1.181297	-0.041069	-0.573416	1.090428	-0.513396	-4.187604	8.086180	0.000000	0.000000	11.253125	-5.653464	-7.176603	-5.427785	-19.193348	5.695267	92.039616	80.654145	-11.172334	6.902287	13.973938	-11.928840	4.592844	120.916271	88.328886	-7.700259	-9.344434
